<svg xmlns="http://www.w3.org/2000/svg" xmlns:xlink="http://www.w3.org/1999/xlink" contentStyleType="text/css" data-diagram-type="SEQUENCE" height="784px" preserveAspectRatio="none" style="width:699px;height:784px;background:#FFFFFF;" version="1.1" viewBox="0 0 699 784" width="699px" zoomAndPan="magnify"><defs/><g><rect fill="none" height="237.4395" style="stroke:#000000;stroke-width:1.5;" width="520.9106" x="161.3218" y="229.7305"/><g><title>Operator</title><rect fill="#000000" fill-opacity="0.00000" height="621.8555" width="8" x="34.2559" y="81.4883"/><line style="stroke:#181818;stroke-width:0.5;stroke-dasharray:5.0,5.0;" x1="38" x2="38" y1="81.4883" y2="703.3438"/></g><g><title>MES Client</title><rect fill="#000000" fill-opacity="0.00000" height="621.8555" width="8" x="209.8823" y="81.4883"/><line style="stroke:#181818;stroke-width:0.5;stroke-dasharray:5.0,5.0;" x1="213.3218" x2="213.3218" y1="81.4883" y2="703.3438"/></g><g><title>MES API</title><rect fill="#000000" fill-opacity="0.00000" height="621.8555" width="8" x="402.0762" y="81.4883"/><line style="stroke:#181818;stroke-width:0.5;stroke-dasharray:5.0,5.0;" x1="405.5527" x2="405.5527" y1="81.4883" y2="703.3438"/></g><g><title>Cache</title><rect fill="#000000" fill-opacity="0.00000" height="621.8555" width="8" x="598.1548" y="81.4883"/><line style="stroke:#181818;stroke-width:0.5;stroke-dasharray:5.0,5.0;" x1="601.6162" x2="601.6162" y1="81.4883" y2="703.3438"/></g><g><title>DB</title><rect fill="#000000" fill-opacity="0.00000" height="621.8555" width="8" x="651.9629" y="81.4883"/><line style="stroke:#181818;stroke-width:0.5;stroke-dasharray:5.0,5.0;" x1="655.6934" x2="655.6934" y1="81.4883" y2="703.3438"/></g><g class="participant participant-head" data-participant="Operator"><text fill="#000000" font-family="sans-serif" font-size="14" lengthAdjust="spacing" textLength="60.5117" x="5" y="78.5352">Operator</text><ellipse cx="38.2559" cy="13.5" fill="#E2E2F0" rx="8" ry="8" style="stroke:#181818;stroke-width:0.5;"/><path d="M38.2559,21.5 L38.2559,48.5 M25.2559,29.5 L51.2559,29.5 M38.2559,48.5 L25.2559,63.5 M38.2559,48.5 L51.2559,63.5" fill="none" style="stroke:#181818;stroke-width:0.5;"/></g><g class="participant participant-tail" data-participant="Operator"><text fill="#000000" font-family="sans-serif" font-size="14" lengthAdjust="spacing" textLength="60.5117" x="5" y="715.8789">Operator</text><ellipse cx="38.2559" cy="727.332" fill="#E2E2F0" rx="8" ry="8" style="stroke:#181818;stroke-width:0.5;"/><path d="M38.2559,735.332 L38.2559,762.332 M25.2559,743.332 L51.2559,743.332 M38.2559,762.332 L25.2559,777.332 M38.2559,762.332 L51.2559,777.332" fill="none" style="stroke:#181818;stroke-width:0.5;"/></g><g class="participant participant-head" data-participant="Client"><rect fill="#E2E2F0" height="30.4883" rx="2.5" ry="2.5" style="stroke:#181818;stroke-width:0.5;" width="85.1211" x="171.3218" y="50"/><text fill="#000000" font-family="sans-serif" font-size="14" lengthAdjust="spacing" textLength="71.1211" x="178.3218" y="70.5352">MES Client</text></g><g class="participant participant-tail" data-participant="Client"><rect fill="#E2E2F0" height="30.4883" rx="2.5" ry="2.5" style="stroke:#181818;stroke-width:0.5;" width="85.1211" x="171.3218" y="702.3438"/><text fill="#000000" font-family="sans-serif" font-size="14" lengthAdjust="spacing" textLength="71.1211" x="178.3218" y="722.8789">MES Client</text></g><g class="participant participant-head" data-participant="API"><rect fill="#E2E2F0" height="30.4883" rx="2.5" ry="2.5" style="stroke:#181818;stroke-width:0.5;" width="67.0469" x="372.5527" y="50"/><text fill="#000000" font-family="sans-serif" font-size="14" lengthAdjust="spacing" textLength="53.0469" x="379.5527" y="70.5352">MES API</text></g><g class="participant participant-tail" data-participant="API"><rect fill="#E2E2F0" height="30.4883" rx="2.5" ry="2.5" style="stroke:#181818;stroke-width:0.5;" width="67.0469" x="372.5527" y="702.3438"/><text fill="#000000" font-family="sans-serif" font-size="14" lengthAdjust="spacing" textLength="53.0469" x="379.5527" y="722.8789">MES API</text></g><g class="participant participant-head" data-participant="Cache"><rect fill="#E2E2F0" height="30.4883" rx="2.5" ry="2.5" style="stroke:#181818;stroke-width:0.5;" width="55.0771" x="574.6162" y="50"/><text fill="#000000" font-family="sans-serif" font-size="14" lengthAdjust="spacing" textLength="41.0771" x="581.6162" y="70.5352">Cache</text></g><g class="participant participant-tail" data-participant="Cache"><rect fill="#E2E2F0" height="30.4883" rx="2.5" ry="2.5" style="stroke:#181818;stroke-width:0.5;" width="55.0771" x="574.6162" y="702.3438"/><text fill="#000000" font-family="sans-serif" font-size="14" lengthAdjust="spacing" textLength="41.0771" x="581.6162" y="722.8789">Cache</text></g><g class="participant participant-head" data-participant="DB"><rect fill="#E2E2F0" height="30.4883" rx="2.5" ry="2.5" style="stroke:#181818;stroke-width:0.5;" width="32.5391" x="639.6934" y="50"/><text fill="#000000" font-family="sans-serif" font-size="14" lengthAdjust="spacing" textLength="18.5391" x="646.6934" y="70.5352">DB</text></g><g class="participant participant-tail" data-participant="DB"><rect fill="#E2E2F0" height="30.4883" rx="2.5" ry="2.5" style="stroke:#181818;stroke-width:0.5;" width="32.5391" x="639.6934" y="702.3438"/><text fill="#000000" font-family="sans-serif" font-size="14" lengthAdjust="spacing" textLength="18.5391" x="646.6934" y="722.8789">DB</text></g><rect fill="#EEEEEE" height="3" style="stroke:#EEEEEE;stroke-width:1;" width="692.2324" x="0" y="112.1436"/><line style="stroke:#000000;stroke-width:1;" x1="0" x2="692.2324" y1="112.1436" y2="112.1436"/><line style="stroke:#000000;stroke-width:1;" x1="0" x2="692.2324" y1="115.1436" y2="115.1436"/><rect fill="#EEEEEE" height="23.3105" style="stroke:#000000;stroke-width:2;" width="122.9639" x="284.6343" y="101.4883"/><text fill="#000000" font-family="sans-serif" font-size="13" font-weight="bold" lengthAdjust="spacing" textLength="104.6792" x="290.6343" y="118.0566">&#1063;&#1090;&#1077;&#1085;&#1080;&#1077; &#1079;&#1072;&#1082;&#1072;&#1079;&#1086;&#1074;</text><g class="message" data-participant-1="Operator" data-participant-2="Client"><polygon fill="#181818" points="201.8823,152.1094,211.8823,156.1094,201.8823,160.1094,205.8823,156.1094" style="stroke:#181818;stroke-width:1;"/><line style="stroke:#181818;stroke-width:1;" x1="38.2559" x2="207.8823" y1="156.1094" y2="156.1094"/><text fill="#000000" font-family="sans-serif" font-size="13" lengthAdjust="spacing" textLength="117.9775" x="45.2559" y="151.3672">&#1054;&#1090;&#1082;&#1088;&#1099;&#1090;&#1100; &#1076;&#1072;&#1096;&#1073;&#1086;&#1088;&#1076;</text></g><g class="message" data-participant-1="Client" data-participant-2="API"><polygon fill="#181818" points="394.0762,181.4199,404.0762,185.4199,394.0762,189.4199,398.0762,185.4199" style="stroke:#181818;stroke-width:1;"/><line style="stroke:#181818;stroke-width:1;" x1="213.8823" x2="400.0762" y1="185.4199" y2="185.4199"/><text fill="#000000" font-family="sans-serif" font-size="13" lengthAdjust="spacing" textLength="131.0156" x="220.8823" y="180.6777">GET /orders?page=1</text></g><g class="message" data-participant-1="API" data-participant-2="Cache"><polygon fill="#181818" points="590.1548,210.7305,600.1548,214.7305,590.1548,218.7305,594.1548,214.7305" style="stroke:#181818;stroke-width:1;"/><line style="stroke:#181818;stroke-width:1;" x1="406.0762" x2="596.1548" y1="214.7305" y2="214.7305"/><text fill="#000000" font-family="sans-serif" font-size="13" lengthAdjust="spacing" textLength="119.666" x="413.0762" y="209.9883">Get orders:page=1</text></g><path d="M161.3218,229.7305 L223.4604,229.7305 L223.4604,237.041 L213.4604,247.041 L161.3218,247.041 L161.3218,229.7305" fill="#EEEEEE" style="stroke:#000000;stroke-width:1.5;"/><rect fill="none" height="237.4395" style="stroke:#000000;stroke-width:1.5;" width="520.9106" x="161.3218" y="229.7305"/><text fill="#000000" font-family="sans-serif" font-size="13" font-weight="bold" lengthAdjust="spacing" textLength="17.1387" x="176.3218" y="243.2988">alt</text><text fill="#000000" font-family="sans-serif" font-size="11" font-weight="bold" lengthAdjust="spacing" textLength="154.0859" x="238.4604" y="242.3652">[&#1047;&#1072;&#1082;&#1072;&#1079;&#1099; &#1074; &#1082;&#1101;&#1096;&#1077; (cache hit)]</text><g class="message" data-participant-1="Cache" data-participant-2="API"><polygon fill="#181818" points="417.0762,264.3516,407.0762,268.3516,417.0762,272.3516,413.0762,268.3516" style="stroke:#181818;stroke-width:1;"/><line style="stroke:#181818;stroke-width:1;stroke-dasharray:2.0,2.0;" x1="411.0762" x2="601.1548" y1="268.3516" y2="268.3516"/><text fill="#000000" font-family="sans-serif" font-size="13" lengthAdjust="spacing" textLength="100.312" x="423.0762" y="263.6094">&#1057;&#1087;&#1080;&#1089;&#1086;&#1082; &#1079;&#1072;&#1082;&#1072;&#1079;&#1086;&#1074;</text></g><g class="message" data-participant-1="API" data-participant-2="Client"><polygon fill="#181818" points="224.8823,293.6621,214.8823,297.6621,224.8823,301.6621,220.8823,297.6621" style="stroke:#181818;stroke-width:1;"/><line style="stroke:#181818;stroke-width:1;stroke-dasharray:2.0,2.0;" x1="218.8823" x2="405.0762" y1="297.6621" y2="297.6621"/><text fill="#000000" font-family="sans-serif" font-size="13" lengthAdjust="spacing" textLength="100.312" x="230.8823" y="292.9199">&#1057;&#1087;&#1080;&#1089;&#1086;&#1082; &#1079;&#1072;&#1082;&#1072;&#1079;&#1086;&#1074;</text></g><line style="stroke:#000000;stroke-width:1;stroke-dasharray:2.0,2.0;" x1="161.3218" x2="682.2324" y1="306.6621" y2="306.6621"/><text fill="#000000" font-family="sans-serif" font-size="11" font-weight="bold" lengthAdjust="spacing" textLength="192.7578" x="166.3218" y="317.2969">[&#1047;&#1072;&#1082;&#1072;&#1079;&#1086;&#1074; &#1085;&#1077;&#1090; &#1074; &#1082;&#1101;&#1096;&#1077; (cache miss)]</text><g class="message" data-participant-1="Cache" data-participant-2="API"><polygon fill="#181818" points="417.0762,337.9277,407.0762,341.9277,417.0762,345.9277,413.0762,341.9277" style="stroke:#181818;stroke-width:1;"/><line style="stroke:#181818;stroke-width:1;" x1="411.0762" x2="601.1548" y1="341.9277" y2="341.9277"/><text fill="#000000" font-family="sans-serif" font-size="13" lengthAdjust="spacing" textLength="23.6514" x="423.0762" y="337.1855">null</text></g><g class="message" data-participant-1="API" data-participant-2="DB"><polygon fill="#181818" points="643.9629,367.2383,653.9629,371.2383,643.9629,375.2383,647.9629,371.2383" style="stroke:#181818;stroke-width:1;"/><line style="stroke:#181818;stroke-width:1;" x1="406.0762" x2="649.9629" y1="371.2383" y2="371.2383"/><text fill="#000000" font-family="sans-serif" font-size="13" lengthAdjust="spacing" textLength="157.46" x="413.0762" y="366.4961">SELECT * FROM orders ...</text></g><g class="message" data-participant-1="DB" data-participant-2="API"><polygon fill="#181818" points="417.0762,396.5488,407.0762,400.5488,417.0762,404.5488,413.0762,400.5488" style="stroke:#181818;stroke-width:1;"/><line style="stroke:#181818;stroke-width:1;stroke-dasharray:2.0,2.0;" x1="411.0762" x2="654.9629" y1="400.5488" y2="400.5488"/><text fill="#000000" font-family="sans-serif" font-size="13" lengthAdjust="spacing" textLength="100.312" x="423.0762" y="395.8066">&#1057;&#1087;&#1080;&#1089;&#1086;&#1082; &#1079;&#1072;&#1082;&#1072;&#1079;&#1086;&#1074;</text></g><g class="message" data-participant-1="API" data-participant-2="Cache"><polygon fill="#181818" points="590.1548,425.8594,600.1548,429.8594,590.1548,433.8594,594.1548,429.8594" style="stroke:#181818;stroke-width:1;"/><line style="stroke:#181818;stroke-width:1;" x1="406.0762" x2="596.1548" y1="429.8594" y2="429.8594"/><text fill="#000000" font-family="sans-serif" font-size="13" lengthAdjust="spacing" textLength="63.8955" x="413.0762" y="425.1172">Set orders</text></g><g class="message" data-participant-1="API" data-participant-2="Client"><polygon fill="#181818" points="224.8823,455.1699,214.8823,459.1699,224.8823,463.1699,220.8823,459.1699" style="stroke:#181818;stroke-width:1;"/><line style="stroke:#181818;stroke-width:1;stroke-dasharray:2.0,2.0;" x1="218.8823" x2="405.0762" y1="459.1699" y2="459.1699"/><text fill="#000000" font-family="sans-serif" font-size="13" lengthAdjust="spacing" textLength="100.312" x="230.8823" y="454.4277">&#1057;&#1087;&#1080;&#1089;&#1086;&#1082; &#1079;&#1072;&#1082;&#1072;&#1079;&#1086;&#1074;</text></g><rect fill="#EEEEEE" height="3" style="stroke:#EEEEEE;stroke-width:1;" width="692.2324" x="0" y="494.8252"/><line style="stroke:#000000;stroke-width:1;" x1="0" x2="692.2324" y1="494.8252" y2="494.8252"/><line style="stroke:#000000;stroke-width:1;" x1="0" x2="692.2324" y1="497.8252" y2="497.8252"/><rect fill="#EEEEEE" height="23.3105" style="stroke:#000000;stroke-width:2;" width="141.8989" x="275.1667" y="484.1699"/><text fill="#000000" font-family="sans-serif" font-size="13" font-weight="bold" lengthAdjust="spacing" textLength="123.6143" x="281.1667" y="500.7383">&#1048;&#1079;&#1084;&#1077;&#1085;&#1077;&#1085;&#1080;&#1077; &#1079;&#1072;&#1082;&#1072;&#1079;&#1072;</text><g class="message" data-participant-1="Operator" data-participant-2="Client"><polygon fill="#181818" points="201.8823,534.791,211.8823,538.791,201.8823,542.791,205.8823,538.791" style="stroke:#181818;stroke-width:1;"/><line style="stroke:#181818;stroke-width:1;" x1="38.2559" x2="207.8823" y1="538.791" y2="538.791"/><text fill="#000000" font-family="sans-serif" font-size="13" lengthAdjust="spacing" textLength="151.6265" x="45.2559" y="534.0488">&#1048;&#1079;&#1084;&#1077;&#1085;&#1080;&#1090;&#1100; &#1089;&#1090;&#1072;&#1090;&#1091;&#1089; &#1079;&#1072;&#1082;&#1072;&#1079;&#1072;</text></g><g class="message" data-participant-1="Client" data-participant-2="API"><polygon fill="#181818" points="394.0762,564.1016,404.0762,568.1016,394.0762,572.1016,398.0762,568.1016" style="stroke:#181818;stroke-width:1;"/><line style="stroke:#181818;stroke-width:1;" x1="213.8823" x2="400.0762" y1="568.1016" y2="568.1016"/><text fill="#000000" font-family="sans-serif" font-size="13" lengthAdjust="spacing" textLength="168.1938" x="220.8823" y="563.3594">PATCH /orders/:id {status}</text></g><g class="message" data-participant-1="API" data-participant-2="DB"><polygon fill="#181818" points="643.9629,593.4121,653.9629,597.4121,643.9629,601.4121,647.9629,597.4121" style="stroke:#181818;stroke-width:1;"/><line style="stroke:#181818;stroke-width:1;" x1="406.0762" x2="649.9629" y1="597.4121" y2="597.4121"/><text fill="#000000" font-family="sans-serif" font-size="13" lengthAdjust="spacing" textLength="194.5747" x="413.0762" y="592.6699">UPDATE orders SET status = ...</text></g><g class="message" data-participant-1="DB" data-participant-2="API"><polygon fill="#181818" points="417.0762,622.7227,407.0762,626.7227,417.0762,630.7227,413.0762,626.7227" style="stroke:#181818;stroke-width:1;"/><line style="stroke:#181818;stroke-width:1;stroke-dasharray:2.0,2.0;" x1="411.0762" x2="654.9629" y1="626.7227" y2="626.7227"/><text fill="#000000" font-family="sans-serif" font-size="13" lengthAdjust="spacing" textLength="18.5859" x="423.0762" y="621.9805">OK</text></g><g class="message" data-participant-1="API" data-participant-2="Cache"><polygon fill="#181818" points="590.1548,652.0332,600.1548,656.0332,590.1548,660.0332,594.1548,656.0332" style="stroke:#181818;stroke-width:1;"/><line style="stroke:#181818;stroke-width:1;" x1="406.0762" x2="596.1548" y1="656.0332" y2="656.0332"/><text fill="#000000" font-family="sans-serif" font-size="13" lengthAdjust="spacing" textLength="172.0786" x="413.0762" y="651.291">Invalidate/update orders:id</text></g><g class="message" data-participant-1="API" data-participant-2="Client"><polygon fill="#181818" points="224.8823,681.3438,214.8823,685.3438,224.8823,689.3438,220.8823,685.3438" style="stroke:#181818;stroke-width:1;"/><line style="stroke:#181818;stroke-width:1;stroke-dasharray:2.0,2.0;" x1="218.8823" x2="405.0762" y1="685.3438" y2="685.3438"/><text fill="#000000" font-family="sans-serif" font-size="13" lengthAdjust="spacing" textLength="18.5859" x="230.8823" y="680.6016">OK</text></g><!--SRC=[dL9DIyD04BtlhnXwKi4Mhu5K-X6rQ6cnzGSipM83CGt9rei8RRq8rREU14zUgxIq5Ar_OVOVETqc_R8A6WWxpBoPUVDul2OR0PHy4N0AcCy3wTGSdtiI4aMh0ZdN4PvC00-Zy3iaKoxeEhqhnHolrSLA9fzbp3G1NrG71_Y18nm03h67O_g7EC4tC4t6OZQmcuwM6e1Fr3DMBTLL7NK7sCUUkiLNdAWMzjaCDSKJ2GCEhIga6e4jWd3Vv-V2t6EKr-Ecd0WW9CpgHbHdt9M03p4NrGKYGmllQSi0jchJFgWxSfi1VNeCxCRxy1a_SQJQTC5uxI0DrykNZ_a5puGRYYKcMXNIQg0wcoXTE66umYcYv3LTTx4xJT8RKB5Eh5mLTk3Wj5ICxeTaCgbn-UmVxvcBMPcB-OzZFNjcYKVAl6jJR316xsTRBFf6sXYgJJxfKNYZsYiZrZrIpbHpHx5BKePZmrKekMo6rsn9ihDoFbErOgqgvAiP24mjtB9efUCranMyI-uwDfSYrVIdJsmvnsRh8b7p5m00]--></g></svg>
